<svg width="512" height="512" viewBox="0 0 512 512" fill="none" xmlns="http://www.w3.org/2000/svg">
<rect width="512" height="512" fill="#121212"/>
<path d="M330.761 404.835C316.841 404.835 305.335 401.474 296.244 394.75C287.153 388.027 281.093 378.273 278.062 365.489L261.159 274.722L244.682 203.131L239.852 183.244C238.053 175.858 235.875 170.46 233.318 167.051C230.856 163.547 227.21 161.701 222.381 161.511C217.551 161.322 210.78 162.506 202.068 165.063L195.534 112.364C201.879 110.28 207.892 108.718 213.574 107.676C219.256 106.634 225.174 106.114 231.33 106.114C250.364 106.114 266.036 110.848 278.347 120.318C290.752 129.693 298.848 143.093 302.636 160.517L339 327.136C341.178 336.985 343.309 343.661 345.392 347.165C347.475 350.574 351.074 352.278 356.187 352.278C357.04 352.278 357.939 352.231 358.886 352.136C359.928 351.947 360.875 351.805 361.727 351.71L358.034 401.284C355.193 402.231 351.074 403.036 345.676 403.699C340.373 404.456 335.401 404.835 330.761 404.835ZM129.483 401L254.341 172.449L281.898 283.813H260.023L200.364 401H129.483Z" fill="url(#paint0_linear_2_5)"/>
<defs>
<linearGradient id="paint0_linear_2_5" x1="245.605" y1="106.114" x2="245.605" y2="404.835" gradientUnits="userSpaceOnUse">
<stop stop-color="#FF5722"/>
<stop offset="1" stop-color="#673AB7"/>
</linearGradient>
</defs>
</svg>
